<svg width="9" height="10" viewBox="0 0 9 10" fill="none" xmlns="http://www.w3.org/2000/svg">
<path fill-rule="evenodd" clip-rule="evenodd" d="M2.53392 2.31107L2.53406 2.3065C2.5343 2.30003 2.53489 2.2879 2.53625 2.27093C2.53899 2.23682 2.54479 2.18428 2.55691 2.11967C2.58153 1.98837 2.62993 1.81947 2.72216 1.65552C2.88794 1.3608 3.22799 1.01316 4.05366 1.01316C4.87933 1.01316 5.21938 1.3608 5.38516 1.65552C5.47739 1.81947 5.52579 1.98837 5.55041 2.11967C5.56253 2.18428 5.56833 2.23682 5.57107 2.27093C5.57243 2.2879 5.57302 2.30003 5.57326 2.3065L5.5734 2.31107V3.54628H2.53392V2.31107ZM1.52076 3.54628V2.30775H2.02734C1.52076 2.30775 1.52076 2.30746 1.52077 2.30717L1.52077 2.30655L1.52077 2.30518L1.52079 2.30192L1.52091 2.29339L1.52162 2.26854C1.52236 2.24863 1.52376 2.22206 1.52635 2.18978C1.53152 2.12539 1.54156 2.03721 1.5611 1.93296C1.59981 1.72654 1.67804 1.44515 1.83911 1.15881C2.17991 0.552947 2.85301 0 4.05366 0C5.25431 0 5.92741 0.552947 6.26821 1.15881C6.42928 1.44515 6.50751 1.72654 6.54622 1.93296C6.56576 2.03721 6.5758 2.12539 6.58097 2.18978C6.58356 2.22206 6.58496 2.24863 6.5857 2.26854L6.58641 2.29339L6.58653 2.30192L6.58655 2.30518L6.58655 2.30655L6.58655 2.30717C6.58655 2.30746 6.58655 2.30775 6.07998 2.30775H6.58655V3.54628H7.09211C7.65166 3.54628 8.10526 3.99989 8.10526 4.55944V8.61207C8.10526 9.17162 7.65166 9.62523 7.09211 9.62523H1.01316C0.453606 9.62523 0 9.17162 0 8.61207V4.55944C0 3.99989 0.453606 3.54628 1.01316 3.54628H1.52076Z" fill="#77828C"/>
</svg>
