<svg width="13" height="16" viewBox="0 0 13 16" fill="none" xmlns="http://www.w3.org/2000/svg">
<path fill-rule="evenodd" clip-rule="evenodd" d="M4.0625 3.70671L4.06272 3.69939C4.06311 3.68901 4.06405 3.66955 4.06624 3.64234C4.07063 3.58762 4.07993 3.50336 4.09936 3.39973C4.13885 3.18914 4.21649 2.91824 4.36441 2.65528C4.6303 2.18257 5.17572 1.625 6.5 1.625C7.82428 1.625 8.3697 2.18257 8.6356 2.65528C8.78351 2.91824 8.86115 3.18914 8.90063 3.39973C8.92006 3.50336 8.92937 3.58762 8.93376 3.64234C8.93595 3.66955 8.93689 3.68901 8.93728 3.69939L8.9375 3.70671V5.6875H4.0625V3.70671ZM2.4375 5.6875V3.70139H3.25C2.4375 3.70139 2.4375 3.70093 2.4375 3.70046L2.4375 3.69946L2.43751 3.69726L2.43754 3.69204L2.43773 3.67836C2.43792 3.66783 2.43826 3.65448 2.43886 3.6385C2.44006 3.60656 2.4423 3.56396 2.44646 3.51218C2.45476 3.40891 2.47085 3.26747 2.5022 3.10027C2.56427 2.76919 2.68976 2.31787 2.94809 1.85861C3.4947 0.88687 4.57428 0 6.5 0C8.42572 0 9.5053 0.88687 10.0519 1.85861C10.3102 2.31787 10.4357 2.76919 10.4978 3.10027C10.5292 3.26747 10.5452 3.40891 10.5535 3.51218C10.5577 3.56396 10.5599 3.60656 10.5611 3.6385C10.5617 3.65448 10.5621 3.66783 10.5623 3.67836L10.5625 3.69204L10.5625 3.69726L10.5625 3.69946L10.5625 3.70046C10.5625 3.70093 10.5625 3.70139 9.75 3.70139H10.5625V5.6875H11.375C12.2725 5.6875 13 6.41504 13 7.3125V13.8125C13 14.71 12.2725 15.4375 11.375 15.4375H1.625C0.727537 15.4375 0 14.71 0 13.8125V7.3125C0 6.41504 0.727537 5.6875 1.625 5.6875H2.4375Z" fill="#77828C"/>
</svg>
