<svg width="14" height="14" viewBox="0 0 14 14" fill="none" xmlns="http://www.w3.org/2000/svg">
<path fill-rule="evenodd" clip-rule="evenodd" d="M7 13C10.3137 13 13 10.3137 13 7C13 3.68629 10.3137 1 7 1C3.68629 1 1 3.68629 1 7C1 10.3137 3.68629 13 7 13ZM7 14C10.866 14 14 10.866 14 7C14 3.13401 10.866 0 7 0C3.13401 0 0 3.13401 0 7C0 10.866 3.13401 14 7 14ZM8 9.5C8 10.0523 7.55228 10.5 7 10.5C6.44772 10.5 6 10.0523 6 9.5C6 8.94771 6.44772 8.5 7 8.5C7.55228 8.5 8 8.94771 8 9.5ZM6.5 8L6.0995 3.99504C6.04623 3.46228 6.46459 3 7 3C7.53541 3 7.95377 3.46228 7.9005 3.99504L7.5 8H6.5Z" fill="#D0471E"/>
</svg>
