<svg width="114" height="32" viewBox="0 0 114 32" fill="none" xmlns="http://www.w3.org/2000/svg">
<path d="M1.17961 8.78431L0 8.43294V7.93098H4.01569C5.1702 7.93098 6.12392 8.18196 6.87686 8.70902C7.60471 9.23608 8.18196 9.91373 8.55843 10.7671L14.5067 24.2949L19.6016 10.4408C19.8024 9.86353 19.5263 9.23608 18.9741 9.0102L17.4682 8.40784V7.90588H23.6675V8.40784L21.9608 9.0353C21.3333 9.26118 20.8314 9.76314 20.6055 10.3906L12.7498 31.7239H11.7459L1.88235 9.38667C1.75686 9.11059 1.50588 8.88471 1.17961 8.78431Z" fill="#4D2A1F"/>
<path d="M21.8355 29.5655C20.2543 27.9843 19.4512 25.8008 19.4512 23.04C19.4512 21.2329 19.8025 19.6518 20.4802 18.2965C21.1829 16.9663 22.1367 15.9372 23.3916 15.2094C24.6214 14.4816 26.052 14.1302 27.6582 14.1302C29.2645 14.1302 30.6951 14.4314 31.8998 15.0337C33.1296 15.6361 34.0582 16.4392 34.7108 17.4682C35.3633 18.4972 35.6896 19.6016 35.6896 20.8314C35.6896 21.3835 35.6394 21.8604 35.5139 22.2871L35.3382 22.8643C34.3845 23.0651 33.3304 23.2408 32.2261 23.3663C29.8669 23.6925 27.5076 23.8682 25.1233 23.8682C25.1233 26.4533 25.4747 28.3106 26.2025 29.4149C26.9304 30.5192 27.9092 31.0714 29.1641 31.0714C30.0425 31.0714 30.8457 30.8706 31.5986 30.4439C32.3516 30.0423 32.9288 29.4902 33.3806 28.7874C33.8072 28.1098 34.0331 27.4071 34.0331 26.6792H34.8614C34.8614 27.5827 34.5853 28.4361 34.0582 29.2392C33.5312 30.0423 32.7782 30.6949 31.7994 31.1718C30.8457 31.6486 29.7414 31.8996 28.4865 31.8996C25.6504 31.9247 23.4167 31.1216 21.8355 29.5655ZM28.6371 22.8643C28.7625 22.8643 28.9131 22.8392 29.0386 22.8392C29.5155 22.789 29.892 22.4376 30.0174 21.9608C30.1178 21.4086 30.1931 20.8063 30.1931 20.1788C30.1931 18.3216 29.9422 16.9663 29.4653 16.1129C28.9633 15.2596 28.3861 14.8329 27.6833 14.8329C26.0018 14.8329 25.1735 17.5686 25.1735 23.0651C26.579 23.0149 27.7335 22.9647 28.6371 22.8643Z" fill="#4D2A1F"/>
<path d="M36.291 30.9208L37.4455 30.6196C37.9475 30.4941 38.2989 30.0423 38.2989 29.5404V10.6918C38.2989 9.66273 37.5961 8.7592 36.5922 8.50822L36.291 8.43293V7.93097H41.2102C42.5655 7.93097 43.6698 9.03528 43.6698 10.3906V29.5404C43.6698 30.0674 44.0212 30.4941 44.5232 30.6196L45.6777 30.9208V31.4227H36.291V30.9208Z" fill="#4D2A1F"/>
<path d="M47.084 30.9208L48.2385 30.6196C48.7405 30.4941 49.0918 30.0423 49.0918 29.5404V17.418C49.0918 16.389 48.3891 15.4855 47.3852 15.2345L47.084 15.1592V14.6572H50.0957C51.4259 14.6572 52.455 15.0839 53.2079 15.9372C53.5091 16.2635 53.735 16.6902 53.9357 17.167C54.2369 16.5898 54.6134 16.0878 55.0401 15.6612C56.044 14.6572 57.2989 14.1553 58.8048 14.1553C60.0597 14.1553 61.1891 14.4063 62.1679 14.9333C63.1718 15.4604 63.9499 16.138 64.502 16.9914C65.0542 17.8447 65.3303 18.7482 65.3303 19.6768V28.6619C65.3303 29.691 66.033 30.5945 67.0369 30.8455L67.3632 30.9208V31.4227H62.9961C61.3397 31.4227 59.9844 30.0674 59.9844 28.411V19.6768C59.9844 18.2714 59.7334 17.1921 59.2314 16.4392C58.7295 15.6863 58.1522 15.3098 57.4746 15.3098C56.6212 15.3098 55.8683 15.7615 55.1906 16.64C54.8895 17.0165 54.6636 17.4682 54.4628 17.9702V29.5153C54.4628 30.0423 54.8142 30.469 55.3161 30.5945L56.4706 30.8957V31.3976H47.084V30.9208Z" fill="#4D2A1F"/>
<path d="M70.4253 29.5655C68.8442 27.9843 68.041 25.8008 68.041 23.04C68.041 21.2329 68.3924 19.6518 69.07 18.2965C69.7728 16.9663 70.7265 15.9372 71.9814 15.2094C73.2112 14.4816 74.6418 14.1302 76.2481 14.1302C77.8543 14.1302 79.2849 14.4314 80.4896 15.0337C81.7194 15.6361 82.6481 16.4392 83.3006 17.4682C83.9532 18.4972 84.2794 19.6016 84.2794 20.8314C84.2794 21.3835 84.2292 21.8604 84.1038 22.2871L83.9281 22.8643C82.9743 23.0651 81.9202 23.2408 80.8159 23.3663C78.4567 23.6925 76.0975 23.8682 73.7132 23.8682C73.7132 26.4533 74.0645 28.3106 74.7924 29.4149C75.5202 30.5192 76.4991 31.0714 77.754 31.0714C78.6324 31.0714 79.4355 30.8706 80.1885 30.4439C80.9414 30.0423 81.5187 29.4902 81.9704 28.7874C82.3971 28.1098 82.623 27.4071 82.623 26.6792H83.4512C83.4512 27.5827 83.1751 28.4361 82.6481 29.2392C82.121 30.0423 81.3681 30.6949 80.3892 31.1718C79.4355 31.6486 78.3312 31.8996 77.0763 31.8996C74.2402 31.9247 72.0065 31.1216 70.4253 29.5655ZM77.2269 22.8643C77.3524 22.8643 77.503 22.8392 77.6285 22.8392C78.1053 22.789 78.4818 22.4376 78.6073 21.9608C78.7077 21.4086 78.783 20.8063 78.783 20.1788C78.783 18.3216 78.532 16.9663 78.0551 16.1129C77.5532 15.2596 76.9759 14.8329 76.2732 14.8329C74.5916 14.8329 73.7634 17.5686 73.7634 23.0651C75.1689 23.0149 76.3485 22.9647 77.2269 22.8643Z" fill="#4D2A1F"/>
<path d="M89.9515 31.0212C89.4245 30.72 88.9727 30.4189 88.6464 30.0926C88.2951 30.5945 87.8935 30.971 87.4668 31.222C87.266 31.3475 87.0402 31.473 86.7892 31.5985H85.9609V25.9012H87.2911C87.5923 26.8298 88.019 27.7083 88.5711 28.5114C89.7507 30.2432 91.2315 31.0965 93.0135 31.0965C93.9421 31.0965 94.67 30.8706 95.1468 30.4189C95.6237 29.9671 95.8747 29.2894 95.8747 28.411C95.8747 27.6832 95.5484 27.0557 94.8958 26.5538C94.2433 26.0518 93.1892 25.4243 91.7837 24.6965C90.579 24.0941 89.6002 23.542 88.8472 23.0651C88.0943 22.5883 87.4668 21.9859 86.9398 21.2581C86.4127 20.5302 86.1617 19.6769 86.1617 18.6981C86.1617 17.3679 86.739 16.2636 87.8935 15.4353C89.048 14.6071 90.83 14.1804 93.2143 14.1804C94.3939 14.1804 95.4982 14.4816 96.5021 15.109C97.0041 15.4102 97.4307 15.7114 97.7821 16.0126C98.0833 15.611 98.4598 15.2345 98.9617 14.8832C99.3382 14.6573 99.5641 14.5318 99.6394 14.5067H100.468V20.2039H99.1374C98.8111 19.2502 98.3845 18.3718 97.9076 17.6189C96.7782 15.862 95.448 15.0087 93.917 15.0087C93.3147 15.0087 92.7876 15.2345 92.3609 15.6863C91.9343 16.1381 91.7335 16.6902 91.7335 17.3679C91.7335 18.2212 92.0849 18.924 92.8127 19.5012C93.5405 20.0785 94.6198 20.731 96.0754 21.4589C97.2551 22.0612 98.2088 22.5883 98.9115 23.0651C99.6143 23.5169 100.217 24.0941 100.719 24.7718C101.221 25.4494 101.472 26.2275 101.472 27.131C101.472 30.3687 98.8864 32 93.7413 32C92.2856 31.9247 91.0558 31.6236 89.9515 31.0212Z" fill="#4D2A1F"/>
<path d="M113.543 6.95216C112.966 5.22039 111.109 4.24157 109.352 4.81882C107.244 5.49647 106.415 8.65882 104.483 9.36157C104.533 7.30353 107.294 5.52157 107.294 3.31294C107.294 1.48078 105.813 0 103.981 0C102.149 0 100.668 1.48078 100.668 3.31294C100.668 5.54667 103.454 7.30353 103.479 9.36157C101.546 8.65882 100.718 5.49647 98.6098 4.81882C96.8781 4.24157 94.9957 5.19529 94.4185 6.95216C93.8412 8.70902 94.7949 10.5663 96.5518 11.1435C98.6098 11.8212 101.069 9.83843 103.027 10.2902C103.203 10.3404 103.981 10.5914 104.257 11.3694C104.935 13.1263 104.056 15.7616 105.211 17.418C106.29 18.8988 108.348 19.2502 109.854 18.171C111.36 17.0918 111.686 15.0337 110.607 13.5278C109.327 11.7459 106.089 11.8965 104.834 10.2902C106.817 9.76314 109.302 11.7961 111.41 11.1184C113.167 10.5663 114.12 8.68392 113.543 6.95216Z" fill="#FF8D67"/>
</svg>
