<svg width="52" height="52" viewBox="0 0 52 52" fill="none" xmlns="http://www.w3.org/2000/svg">
<rect width="52" height="52" rx="12" fill="white"/>
<path d="M34.4 15.2L27.2 22.4L29.6 24.8L38 16.4V15.2M26 26.6C25.8409 26.6 25.6883 26.5368 25.5757 26.4243C25.4632 26.3117 25.4 26.1591 25.4 26C25.4 25.8409 25.4632 25.6883 25.5757 25.5757C25.6883 25.4632 25.8409 25.4 26 25.4C26.1591 25.4 26.3117 25.4632 26.4243 25.5757C26.5368 25.6883 26.6 25.8409 26.6 26C26.6 26.1591 26.5368 26.3117 26.4243 26.4243C26.3117 26.5368 26.1591 26.6 26 26.6ZM18.8 35.6C18.1635 35.6 17.553 35.3471 17.1029 34.8971C16.6529 34.447 16.4 33.8365 16.4 33.2C16.4 32.5635 16.6529 31.953 17.1029 31.5029C17.553 31.0529 18.1635 30.8 18.8 30.8C19.4365 30.8 20.047 31.0529 20.4971 31.5029C20.9471 31.953 21.2 32.5635 21.2 33.2C21.2 33.8365 20.9471 34.447 20.4971 34.8971C20.047 35.3471 19.4365 35.6 18.8 35.6ZM18.8 21.2C18.1635 21.2 17.553 20.9471 17.1029 20.4971C16.6529 20.047 16.4 19.4365 16.4 18.8C16.4 18.1635 16.6529 17.553 17.1029 17.1029C17.553 16.6529 18.1635 16.4 18.8 16.4C19.4365 16.4 20.047 16.6529 20.4971 17.1029C20.9471 17.553 21.2 18.1635 21.2 18.8C21.2 19.4365 20.9471 20.047 20.4971 20.4971C20.047 20.9471 19.4365 21.2 18.8 21.2ZM23.168 20.768C23.444 20.168 23.6 19.508 23.6 18.8C23.6 17.527 23.0943 16.3061 22.1941 15.4059C21.2939 14.5057 20.073 14 18.8 14C17.527 14 16.3061 14.5057 15.4059 15.4059C14.5057 16.3061 14 17.527 14 18.8C14 20.073 14.5057 21.2939 15.4059 22.1941C16.3061 23.0943 17.527 23.6 18.8 23.6C19.508 23.6 20.168 23.444 20.768 23.168L23.6 26L20.768 28.832C20.168 28.556 19.508 28.4 18.8 28.4C17.527 28.4 16.3061 28.9057 15.4059 29.8059C14.5057 30.7061 14 31.927 14 33.2C14 34.473 14.5057 35.6939 15.4059 36.5941C16.3061 37.4943 17.527 38 18.8 38C20.073 38 21.2939 37.4943 22.1941 36.5941C23.0943 35.6939 23.6 34.473 23.6 33.2C23.6 32.492 23.444 31.832 23.168 31.232L26 28.4L34.4 36.8H38V35.6L23.168 20.768Z" fill="#F27349"/>
</svg>
