<svg width="52" height="52" viewBox="0 0 52 52" fill="none" xmlns="http://www.w3.org/2000/svg">
<rect width="52" height="52" rx="12" fill="white"/>
<path d="M25 16C24.0111 16 23.0444 16.2932 22.2221 16.8427C21.3999 17.3921 20.759 18.173 20.3806 19.0866C20.0022 20.0002 19.9031 21.0055 20.0961 21.9755C20.289 22.9454 20.7652 23.8363 21.4645 24.5355C22.1637 25.2348 23.0546 25.711 24.0245 25.9039C24.9945 26.0969 25.9998 25.9978 26.9134 25.6194C27.827 25.241 28.6079 24.6001 29.1573 23.7779C29.7068 22.9556 30 21.9889 30 21C30 19.6739 29.4732 18.4021 28.5355 17.4645C27.5979 16.5268 26.3261 16 25 16ZM25 24C24.4067 24 23.8266 23.8241 23.3333 23.4944C22.8399 23.1648 22.4554 22.6962 22.2284 22.1481C22.0013 21.5999 21.9419 20.9967 22.0576 20.4147C22.1734 19.8328 22.4591 19.2982 22.8787 18.8787C23.2982 18.4591 23.8328 18.1734 24.4147 18.0576C24.9967 17.9419 25.5999 18.0013 26.1481 18.2284C26.6962 18.4554 27.1648 18.8399 27.4944 19.3333C27.8241 19.8266 28 20.4067 28 21C28 21.7956 27.6839 22.5587 27.1213 23.1213C26.5587 23.6839 25.7956 24 25 24ZM34 35V34C34 32.1435 33.2625 30.363 31.9497 29.0503C30.637 27.7375 28.8565 27 27 27H23C21.1435 27 19.363 27.7375 18.0503 29.0503C16.7375 30.363 16 32.1435 16 34V35H18V34C18 32.6739 18.5268 31.4021 19.4645 30.4645C20.4021 29.5268 21.6739 29 23 29H27C28.3261 29 29.5979 29.5268 30.5355 30.4645C31.4732 31.4021 32 32.6739 32 34V35H34Z" fill="#0D0D0D"/>
</svg>
